<svg width="96" height="96" xmlns="http://www.w3.org/2000/svg" xmlns:xlink="http://www.w3.org/1999/xlink" xml:space="preserve" overflow="hidden"><defs><clipPath id="clip0"><rect x="649" y="269" width="96" height="96"/></clipPath></defs><g clip-path="url(#clip0)" transform="translate(-649 -269)"><path d="M720 317C720 318.657 718.657 320 717 320L684.24 320 693.12 328.88C694.25 330.092 694.182 331.991 692.97 333.12 691.818 334.194 690.032 334.194 688.88 333.12L674.88 319.12C673.71 317.949 673.71 316.051 674.88 314.88L688.88 300.88C690.092 299.75 691.99 299.818 693.12 301.03 694.194 302.182 694.194 303.968 693.12 305.12L684.24 314 717 314C718.657 314 720 315.343 720 317Z" fill="#96BFD9"/><path d="M659 317C659 337.987 676.013 355 697 355 717.987 355 735 337.987 735 317 735 296.013 717.987 279 697 279 676.013 279 659 296.013 659 317ZM665 317C665 299.327 679.327 285 697 285 714.673 285 729 299.327 729 317 729 334.673 714.673 349 697 349 679.327 349 665 334.673 665 317Z" fill="#96BFD9"/></g></svg>