<svg width="96" height="96" xmlns="http://www.w3.org/2000/svg" xmlns:xlink="http://www.w3.org/1999/xlink" xml:space="preserve" overflow="hidden"><defs><clipPath id="clip0"><rect x="640" y="403" width="96" height="96"/></clipPath></defs><g clip-path="url(#clip0)" transform="translate(-640 -403)"><path d="M711 451C711 452.657 709.657 454 708 454L675.24 454 684.12 462.88C685.25 464.092 685.182 465.991 683.97 467.12 682.818 468.194 681.032 468.194 679.88 467.12L665.88 453.12C664.71 451.949 664.71 450.051 665.88 448.88L679.88 434.88C681.092 433.75 682.99 433.818 684.12 435.03 685.194 436.182 685.194 437.968 684.12 439.12L675.24 448 708 448C709.657 448 711 449.343 711 451Z" fill="#424B58"/><path d="M650 451C650 471.987 667.013 489 688 489 708.987 489 726 471.987 726 451 726 430.013 708.987 413 688 413 667.013 413 650 430.013 650 451ZM656 451C656 433.327 670.327 419 688 419 705.673 419 720 433.327 720 451 720 468.673 705.673 483 688 483 670.327 483 656 468.673 656 451Z" fill="#424B58"/></g></svg>