<svg width="96" height="96" xmlns="http://www.w3.org/2000/svg" xmlns:xlink="http://www.w3.org/1999/xlink" xml:space="preserve" overflow="hidden"><defs><clipPath id="clip0"><rect x="640" y="541" width="96" height="96"/></clipPath></defs><g clip-path="url(#clip0)" transform="translate(-640 -541)"><path d="M711 589C711 590.657 709.657 592 708 592L675.24 592 684.12 600.88C685.25 602.092 685.182 603.99 683.97 605.12 682.818 606.194 681.032 606.194 679.88 605.12L665.88 591.12C664.71 589.949 664.71 588.051 665.88 586.88L679.88 572.88C681.092 571.75 682.99 571.818 684.12 573.03 685.194 574.182 685.194 575.968 684.12 577.12L675.24 586 708 586C709.657 586 711 587.343 711 589Z" fill="#F2F2F2"/><path d="M650 589C650 609.987 667.013 627 688 627 708.987 627 726 609.987 726 589 726 568.013 708.987 551 688 551 667.013 551 650 568.013 650 589ZM656 589C656 571.327 670.327 557 688 557 705.673 557 720 571.327 720 589 720 606.673 705.673 621 688 621 670.327 621 656 606.673 656 589Z" fill="#F2F2F2"/></g></svg>