<svg width="96" height="96" xmlns="http://www.w3.org/2000/svg" xmlns:xlink="http://www.w3.org/1999/xlink" xml:space="preserve" overflow="hidden"><defs><clipPath id="clip0"><rect x="193" y="210" width="96" height="96"/></clipPath></defs><g clip-path="url(#clip0)" transform="translate(-193 -210)"><path d="M216 292 216 224 241 224 241 245 266 245 266 292 216 292ZM247 226.5 259.5 239 247 239 247 226.5ZM247 218 210 218 210 298 272 298 272 240 247 218Z" fill="#F2F2F2"/><path d="M222 255 260 255 260 259 222 259Z" fill="#F2F2F2"/><path d="M222 247 235 247 235 251 222 251Z" fill="#F2F2F2"/><path d="M222 263 260 263 260 267 222 267Z" fill="#F2F2F2"/><path d="M222 271 260 271 260 275 222 275Z" fill="#F2F2F2"/><path d="M222 279 260 279 260 283 222 283Z" fill="#F2F2F2"/></g></svg>