<svg width="96" height="96" xmlns="http://www.w3.org/2000/svg" xmlns:xlink="http://www.w3.org/1999/xlink" xml:space="preserve" overflow="hidden"><defs><clipPath id="clip0"><rect x="191" y="86" width="96" height="96"/></clipPath></defs><g clip-path="url(#clip0)" transform="translate(-191 -86)"><path d="M214 168 214 100 239 100 239 121 264 121 264 168 214 168ZM245 102.5 257.5 115 245 115 245 102.5ZM245 94 208 94 208 174 270 174 270 116 245 94Z" fill="#424B58"/><path d="M220 131 258 131 258 135 220 135Z" fill="#424B58"/><path d="M220 123 233 123 233 127 220 127Z" fill="#424B58"/><path d="M220 139 258 139 258 143 220 143Z" fill="#424B58"/><path d="M220 147 258 147 258 151 220 151Z" fill="#424B58"/><path d="M220 155 258 155 258 159 220 159Z" fill="#424B58"/></g></svg>