<svg width="96" height="96" xmlns="http://www.w3.org/2000/svg" xmlns:xlink="http://www.w3.org/1999/xlink" xml:space="preserve" overflow="hidden"><defs><clipPath id="clip0"><rect x="195" y="332" width="96" height="96"/></clipPath></defs><g clip-path="url(#clip0)" transform="translate(-195 -332)"><path d="M218 414 218 346 243 346 243 367 268 367 268 414 218 414ZM249 348.5 261.5 361 249 361 249 348.5ZM249 340 212 340 212 420 274 420 274 362 249 340Z" fill="#96BFD9"/><path d="M224 377 262 377 262 381 224 381Z" fill="#96BFD9"/><path d="M224 369 237 369 237 373 224 373Z" fill="#96BFD9"/><path d="M224 385 262 385 262 389 224 389Z" fill="#96BFD9"/><path d="M224 393 262 393 262 397 224 397Z" fill="#96BFD9"/><path d="M224 401 262 401 262 405 224 405Z" fill="#96BFD9"/></g></svg>