<svg width="96" height="96" xmlns="http://www.w3.org/2000/svg" xmlns:xlink="http://www.w3.org/1999/xlink" xml:space="preserve" overflow="hidden"><defs><clipPath id="clip0"><rect x="517" y="222" width="96" height="96"/></clipPath></defs><g clip-path="url(#clip0)" transform="translate(-517 -222)"><path d="M570.5 301.5C577 293.5 584.2 283.4 584.9 272L596.9 272C596 286.9 584.9 299 570.5 301.5ZM533.1 272 545.1 272C545.9 283.4 553 293.5 559.5 301.5 545.1 299 534 286.9 533.1 272ZM559.5 238.5C553 246.5 545.8 256.6 545.1 268L533.1 268C534 253.1 545.1 241 559.5 238.5ZM567 272 580.9 272C580.1 282.3 573.4 291.6 567 299.5L567 272ZM563 272 563 299.5C556.6 291.6 549.9 282.3 549.1 272L563 272ZM567 240.5C573.4 248.4 580.1 257.6 580.9 268L567 268 567 240.5ZM563 268 549.1 268C549.9 257.7 556.6 248.4 563 240.5L563 268ZM596.9 268 584.9 268C584.2 256.6 577 246.5 570.5 238.5 584.9 241 596 253.1 596.9 268ZM565 232C544 232 527 249 527 270 527 291 544 308 565 308 586 308 603 291 603 270 603 249 586 232 565 232Z" fill="#FFFFFF"/></g></svg>