<svg width="96" height="96" xmlns="http://www.w3.org/2000/svg" xmlns:xlink="http://www.w3.org/1999/xlink" xml:space="preserve" overflow="hidden"><defs><clipPath id="clip0"><rect x="517" y="336" width="96" height="96"/></clipPath></defs><g clip-path="url(#clip0)" transform="translate(-517 -336)"><path d="M570.5 415.5C577 407.5 584.2 397.4 584.9 386L596.9 386C596 400.9 584.9 413 570.5 415.5ZM533.1 386 545.1 386C545.9 397.4 553 407.5 559.5 415.5 545.1 413 534 400.9 533.1 386ZM559.5 352.5C553 360.5 545.8 370.6 545.1 382L533.1 382C534 367.1 545.1 355 559.5 352.5ZM567 386 580.9 386C580.1 396.3 573.4 405.6 567 413.5L567 386ZM563 386 563 413.5C556.6 405.6 549.9 396.3 549.1 386L563 386ZM567 354.5C573.4 362.4 580.1 371.6 580.9 382L567 382 567 354.5ZM563 382 549.1 382C549.9 371.7 556.6 362.4 563 354.5L563 382ZM596.9 382 584.9 382C584.2 370.6 577 360.5 570.5 352.5 584.9 355 596 367.1 596.9 382ZM565 346C544 346 527 363 527 384 527 405 544 422 565 422 586 422 603 405 603 384 603 363 586 346 565 346Z" fill="#96BFD9"/></g></svg>