<svg width="96" height="96" xmlns="http://www.w3.org/2000/svg" xmlns:xlink="http://www.w3.org/1999/xlink" xml:space="preserve" overflow="hidden"><defs><clipPath id="clip0"><rect x="517" y="82" width="96" height="96"/></clipPath></defs><g clip-path="url(#clip0)" transform="translate(-517 -82)"><path d="M570.5 161.5C577 153.5 584.2 143.4 584.9 132L596.9 132C596 146.9 584.9 159 570.5 161.5ZM533.1 132 545.1 132C545.9 143.4 553 153.5 559.5 161.5 545.1 159 534 146.9 533.1 132ZM559.5 98.5C553 106.5 545.8 116.6 545.1 128L533.1 128C534 113.1 545.1 101 559.5 98.5ZM567 132 580.9 132C580.1 142.3 573.4 151.6 567 159.5L567 132ZM563 132 563 159.5C556.6 151.6 549.9 142.3 549.1 132L563 132ZM567 100.5C573.4 108.4 580.1 117.6 580.9 128L567 128 567 100.5ZM563 128 549.1 128C549.9 117.7 556.6 108.4 563 100.5L563 128ZM596.9 128 584.9 128C584.2 116.6 577 106.5 570.5 98.5 584.9 101 596 113.1 596.9 128ZM565 92C544 92 527 109 527 130 527 151 544 168 565 168 586 168 603 151 603 130 603 109 586 92 565 92Z" fill="#424B58"/></g></svg>