<svg width="96" height="96" xmlns="http://www.w3.org/2000/svg" xmlns:xlink="http://www.w3.org/1999/xlink" xml:space="preserve" overflow="hidden"><defs><clipPath id="clip0"><rect x="621" y="222" width="96" height="96"/></clipPath></defs><g clip-path="url(#clip0)" transform="translate(-621 -222)"><path d="M654 252.8C654 257.771 649.971 261.8 645 261.8 640.029 261.8 636 257.771 636 252.8 636 247.829 640.029 243.8 645 243.8 649.971 243.8 654 247.829 654 252.8Z" fill="#FFFFFF"/><path d="M702 252.8C702 257.771 697.971 261.8 693 261.8 688.029 261.8 684 257.771 684 252.8 684 247.829 688.029 243.8 693 243.8 697.971 243.8 702 247.829 702 252.8Z" fill="#FFFFFF"/><path d="M687 296.2 687 287.2C687 285.8 686.4 284.4 685.2 283.6 682.8 281.6 679.6 280.2 676.4 279.4 674.2 278.8 671.6 278.2 669 278.2 666.6 278.2 664 278.6 661.6 279.4 658.4 280.2 655.4 281.8 652.8 283.6 651.6 284.6 651 285.8 651 287.2L651 296.2 687 296.2Z" fill="#FFFFFF"/><path d="M678 266.8C678 271.771 673.971 275.8 669 275.8 664.029 275.8 660 271.771 660 266.8 660 261.829 664.029 257.8 669 257.8 673.971 257.8 678 261.829 678 266.8Z" fill="#FFFFFF"/><path d="M709.2 269.6C706.8 267.6 703.6 266.2 700.4 265.4 698.2 264.8 695.6 264.2 693 264.2 690.6 264.2 688 264.6 685.6 265.4 684.4 265.8 683.2 266.2 682 266.8L682 267C682 270.4 680.6 273.6 678.4 275.8 682.2 277 685.2 278.6 687.6 280.4 688.2 281 688.8 281.4 689.2 282.2L711 282.2 711 273.2C711 271.8 710.4 270.4 709.2 269.6Z" fill="#FFFFFF"/><path d="M650.4 280.4 650.4 280.4C653.2 278.4 656.4 276.8 659.6 275.8 657.4 273.4 656 270.4 656 267 656 266.8 656 266.8 656 266.6 654.8 266.2 653.6 265.6 652.4 265.4 650.2 264.8 647.6 264.2 645 264.2 642.6 264.2 640 264.6 637.6 265.4 634.4 266.4 631.4 267.8 628.8 269.6 627.6 270.4 627 271.8 627 273.2L627 282.2 648.6 282.2C649.2 281.4 649.6 281 650.4 280.4Z" fill="#FFFFFF"/></g></svg>