<svg width="96" height="96" xmlns="http://www.w3.org/2000/svg" xmlns:xlink="http://www.w3.org/1999/xlink" xml:space="preserve" overflow="hidden"><defs><clipPath id="clip0"><rect x="621" y="336" width="96" height="96"/></clipPath></defs><g clip-path="url(#clip0)" transform="translate(-621 -336)"><path d="M654 366.8C654 371.771 649.971 375.8 645 375.8 640.029 375.8 636 371.771 636 366.8 636 361.829 640.029 357.8 645 357.8 649.971 357.8 654 361.829 654 366.8Z" fill="#96BFD9"/><path d="M702 366.8C702 371.771 697.971 375.8 693 375.8 688.029 375.8 684 371.771 684 366.8 684 361.829 688.029 357.8 693 357.8 697.971 357.8 702 361.829 702 366.8Z" fill="#96BFD9"/><path d="M687 410.2 687 401.2C687 399.8 686.4 398.4 685.2 397.6 682.8 395.6 679.6 394.2 676.4 393.4 674.2 392.8 671.6 392.2 669 392.2 666.6 392.2 664 392.6 661.6 393.4 658.4 394.2 655.4 395.8 652.8 397.6 651.6 398.6 651 399.8 651 401.2L651 410.2 687 410.2Z" fill="#96BFD9"/><path d="M678 380.8C678 385.771 673.971 389.8 669 389.8 664.029 389.8 660 385.771 660 380.8 660 375.829 664.029 371.8 669 371.8 673.971 371.8 678 375.829 678 380.8Z" fill="#96BFD9"/><path d="M709.2 383.6C706.8 381.6 703.6 380.2 700.4 379.4 698.2 378.8 695.6 378.2 693 378.2 690.6 378.2 688 378.6 685.6 379.4 684.4 379.8 683.2 380.2 682 380.8L682 381C682 384.4 680.6 387.6 678.4 389.8 682.2 391 685.2 392.6 687.6 394.4 688.2 395 688.8 395.4 689.2 396.2L711 396.2 711 387.2C711 385.8 710.4 384.4 709.2 383.6Z" fill="#96BFD9"/><path d="M650.4 394.4 650.4 394.4C653.2 392.4 656.4 390.8 659.6 389.8 657.4 387.4 656 384.4 656 381 656 380.8 656 380.8 656 380.6 654.8 380.2 653.6 379.6 652.4 379.4 650.2 378.8 647.6 378.2 645 378.2 642.6 378.2 640 378.6 637.6 379.4 634.4 380.4 631.4 381.8 628.8 383.6 627.6 384.4 627 385.8 627 387.2L627 396.2 648.6 396.2C649.2 395.4 649.6 395 650.4 394.4Z" fill="#96BFD9"/></g></svg>