<svg width="96" height="96" xmlns="http://www.w3.org/2000/svg" xmlns:xlink="http://www.w3.org/1999/xlink" xml:space="preserve" overflow="hidden"><defs><clipPath id="clip0"><rect x="621" y="82" width="96" height="96"/></clipPath></defs><g clip-path="url(#clip0)" transform="translate(-621 -82)"><path d="M654 112.8C654 117.771 649.971 121.8 645 121.8 640.029 121.8 636 117.771 636 112.8 636 107.829 640.029 103.8 645 103.8 649.971 103.8 654 107.829 654 112.8Z" fill="#424B58"/><path d="M702 112.8C702 117.771 697.971 121.8 693 121.8 688.029 121.8 684 117.771 684 112.8 684 107.829 688.029 103.8 693 103.8 697.971 103.8 702 107.829 702 112.8Z" fill="#424B58"/><path d="M687 156.2 687 147.2C687 145.8 686.4 144.4 685.2 143.6 682.8 141.6 679.6 140.2 676.4 139.4 674.2 138.8 671.6 138.2 669 138.2 666.6 138.2 664 138.6 661.6 139.4 658.4 140.2 655.4 141.8 652.8 143.6 651.6 144.6 651 145.8 651 147.2L651 156.2 687 156.2Z" fill="#424B58"/><path d="M678 126.8C678 131.771 673.971 135.8 669 135.8 664.029 135.8 660 131.771 660 126.8 660 121.829 664.029 117.8 669 117.8 673.971 117.8 678 121.829 678 126.8Z" fill="#424B58"/><path d="M709.2 129.6C706.8 127.6 703.6 126.2 700.4 125.4 698.2 124.8 695.6 124.2 693 124.2 690.6 124.2 688 124.6 685.6 125.4 684.4 125.8 683.2 126.2 682 126.8L682 127C682 130.4 680.6 133.6 678.4 135.8 682.2 137 685.2 138.6 687.6 140.4 688.2 141 688.8 141.4 689.2 142.2L711 142.2 711 133.2C711 131.8 710.4 130.4 709.2 129.6Z" fill="#424B58"/><path d="M650.4 140.4 650.4 140.4C653.2 138.4 656.4 136.8 659.6 135.8 657.4 133.4 656 130.4 656 127 656 126.8 656 126.8 656 126.6 654.8 126.2 653.6 125.6 652.4 125.4 650.2 124.8 647.6 124.2 645 124.2 642.6 124.2 640 124.6 637.6 125.4 634.4 126.4 631.4 127.8 628.8 129.6 627.6 130.4 627 131.8 627 133.2L627 142.2 648.6 142.2C649.2 141.4 649.6 141 650.4 140.4Z" fill="#424B58"/></g></svg>