<svg width="96" height="96" xmlns="http://www.w3.org/2000/svg" xmlns:xlink="http://www.w3.org/1999/xlink" xml:space="preserve" overflow="hidden"><defs><clipPath id="clip0"><rect x="731" y="222" width="96" height="96"/></clipPath></defs><g clip-path="url(#clip0)" transform="translate(-731 -222)"><path d="M795 252C795 260.837 787.837 268 779 268 770.163 268 763 260.837 763 252 763 243.163 770.163 236 779 236 787.837 236 795 243.163 795 252Z" fill="#FFFFFF"/><path d="M811 304 811 288C811 285.6 809.8 283.2 807.8 281.6 803.4 278 797.8 275.6 792.2 274 788.2 272.8 783.8 272 779 272 774.6 272 770.2 272.8 765.8 274 760.2 275.6 754.6 278.4 750.2 281.6 748.2 283.2 747 285.6 747 288L747 304 811 304Z" fill="#FFFFFF"/></g></svg>