<svg width="96" height="96" xmlns="http://www.w3.org/2000/svg" xmlns:xlink="http://www.w3.org/1999/xlink" xml:space="preserve" overflow="hidden"><defs><clipPath id="clip0"><rect x="731" y="82" width="96" height="96"/></clipPath></defs><g clip-path="url(#clip0)" transform="translate(-731 -82)"><path d="M795 112C795 120.837 787.837 128 779 128 770.163 128 763 120.837 763 112 763 103.163 770.163 96 779 96 787.837 96 795 103.163 795 112Z" fill="#424B58"/><path d="M811 164 811 148C811 145.6 809.8 143.2 807.8 141.6 803.4 138 797.8 135.6 792.2 134 788.2 132.8 783.8 132 779 132 774.6 132 770.2 132.8 765.8 134 760.2 135.6 754.6 138.4 750.2 141.6 748.2 143.2 747 145.6 747 148L747 164 811 164Z" fill="#424B58"/></g></svg>