<svg width="96" height="96" xmlns="http://www.w3.org/2000/svg" xmlns:xlink="http://www.w3.org/1999/xlink" xml:space="preserve" overflow="hidden"><defs><clipPath id="clip0"><rect x="731" y="336" width="96" height="96"/></clipPath></defs><g clip-path="url(#clip0)" transform="translate(-731 -336)"><path d="M795 366C795 374.837 787.837 382 779 382 770.163 382 763 374.837 763 366 763 357.163 770.163 350 779 350 787.837 350 795 357.163 795 366Z" fill="#96BFD9"/><path d="M811 418 811 402C811 399.6 809.8 397.2 807.8 395.6 803.4 392 797.8 389.6 792.2 388 788.2 386.8 783.8 386 779 386 774.6 386 770.2 386.8 765.8 388 760.2 389.6 754.6 392.4 750.2 395.6 748.2 397.2 747 399.6 747 402L747 418 811 418Z" fill="#96BFD9"/></g></svg>