<svg width="96" height="96" xmlns="http://www.w3.org/2000/svg" xmlns:xlink="http://www.w3.org/1999/xlink" xml:space="preserve" overflow="hidden"><defs><clipPath id="clip0"><rect x="527" y="528" width="96" height="96"/></clipPath></defs><g clip-path="url(#clip0)" transform="translate(-527 -528)"><path d="M553.592 575.973C553.596 575.127 553.651 574.281 553.756 573.441L540.226 573.441 540.226 578.441 553.746 578.441C553.647 577.622 553.596 576.798 553.592 575.973Z" fill="#F2F2F2"/><path d="M575.006 554.559C575.842 554.563 576.677 554.616 577.506 554.718L577.506 541.161 572.506 541.161 572.506 554.718C573.336 554.616 574.17 554.563 575.006 554.559Z" fill="#F2F2F2"/><path d="M591.78 562.7 601.367 553.114 597.832 549.58 588.24 559.171C589.553 560.206 590.741 561.391 591.78 562.7Z" fill="#F2F2F2"/><path d="M561.772 559.171 552.181 549.58 548.646 553.115 558.232 562.7C559.271 561.391 560.459 560.206 561.772 559.171Z" fill="#F2F2F2"/><path d="M588.277 592.748 597.832 602.3 601.367 598.764 591.808 589.205C590.772 590.519 589.587 591.708 588.277 592.748Z" fill="#F2F2F2"/><path d="M596.256 573.441C596.471 575.101 596.475 576.781 596.266 578.441L609.786 578.441 609.786 573.441Z" fill="#F2F2F2"/><path d="M575.006 597.388C574.17 597.384 573.336 597.331 572.506 597.229L572.506 610.721 577.506 610.721 577.506 597.229C576.677 597.331 575.842 597.384 575.006 597.388Z" fill="#F2F2F2"/><path d="M558.2 589.208 548.642 598.766 552.181 602.3 561.734 592.747C560.423 591.708 559.237 590.52 558.2 589.208Z" fill="#F2F2F2"/><path d="M592.42 575.973C592.42 585.591 584.623 593.387 575.006 593.387 565.388 593.387 557.592 585.591 557.592 575.973 557.592 566.355 565.388 558.559 575.006 558.559 584.623 558.559 592.42 566.355 592.42 575.973Z" fill="#F2F2F2"/></g></svg>