<svg width="96" height="96" xmlns="http://www.w3.org/2000/svg" xmlns:xlink="http://www.w3.org/1999/xlink" xml:space="preserve" overflow="hidden"><defs><clipPath id="clip0"><rect x="518" y="269" width="96" height="96"/></clipPath></defs><g clip-path="url(#clip0)" transform="translate(-518 -269)"><path d="M544.592 316.973C544.596 316.126 544.651 315.281 544.756 314.441L531.226 314.441 531.226 319.441 544.746 319.441C544.647 318.622 544.596 317.798 544.592 316.973Z" fill="#96BFD9"/><path d="M566.006 295.559C566.842 295.563 567.677 295.616 568.506 295.718L568.506 282.161 563.506 282.161 563.506 295.718C564.336 295.616 565.17 295.563 566.006 295.559Z" fill="#96BFD9"/><path d="M582.78 303.7 592.367 294.114 588.832 290.58 579.24 300.171C580.553 301.206 581.741 302.391 582.78 303.7Z" fill="#96BFD9"/><path d="M552.772 300.171 543.181 290.58 539.646 294.115 549.232 303.7C550.271 302.391 551.459 301.206 552.772 300.171Z" fill="#96BFD9"/><path d="M579.277 333.748 588.832 343.3 592.367 339.764 582.808 330.205C581.772 331.519 580.587 332.708 579.277 333.748Z" fill="#96BFD9"/><path d="M587.256 314.441C587.471 316.1 587.475 317.781 587.266 319.441L600.786 319.441 600.786 314.441Z" fill="#96BFD9"/><path d="M566.006 338.388C565.17 338.384 564.336 338.331 563.506 338.229L563.506 351.721 568.506 351.721 568.506 338.229C567.677 338.331 566.842 338.384 566.006 338.388Z" fill="#96BFD9"/><path d="M549.2 330.208 539.642 339.766 543.181 343.3 552.734 333.747C551.423 332.708 550.237 331.52 549.2 330.208Z" fill="#96BFD9"/><path d="M583.42 316.973C583.42 326.591 575.623 334.387 566.006 334.387 556.388 334.387 548.592 326.591 548.592 316.973 548.592 307.355 556.388 299.559 566.006 299.559 575.623 299.559 583.42 307.355 583.42 316.973Z" fill="#96BFD9"/></g></svg>