<svg width="96" height="96" xmlns="http://www.w3.org/2000/svg" xmlns:xlink="http://www.w3.org/1999/xlink" xml:space="preserve" overflow="hidden"><defs><clipPath id="clip0"><rect x="518" y="403" width="96" height="96"/></clipPath></defs><g clip-path="url(#clip0)" transform="translate(-518 -403)"><path d="M544.592 450.973C544.596 450.126 544.651 449.281 544.756 448.441L531.226 448.441 531.226 453.441 544.746 453.441C544.647 452.622 544.596 451.798 544.592 450.973Z" fill="#424B58"/><path d="M566.006 429.559C566.842 429.563 567.677 429.616 568.506 429.718L568.506 416.161 563.506 416.161 563.506 429.718C564.336 429.616 565.17 429.563 566.006 429.559Z" fill="#424B58"/><path d="M582.78 437.7 592.367 428.114 588.832 424.58 579.24 434.171C580.553 435.206 581.741 436.391 582.78 437.7Z" fill="#424B58"/><path d="M552.772 434.171 543.181 424.58 539.646 428.115 549.232 437.7C550.271 436.391 551.459 435.206 552.772 434.171Z" fill="#424B58"/><path d="M579.277 467.748 588.832 477.3 592.367 473.764 582.808 464.205C581.772 465.519 580.587 466.708 579.277 467.748Z" fill="#424B58"/><path d="M587.256 448.441C587.471 450.1 587.475 451.781 587.266 453.441L600.786 453.441 600.786 448.441Z" fill="#424B58"/><path d="M566.006 472.388C565.17 472.384 564.336 472.331 563.506 472.229L563.506 485.721 568.506 485.721 568.506 472.229C567.677 472.331 566.842 472.384 566.006 472.388Z" fill="#424B58"/><path d="M549.2 464.208 539.642 473.766 543.181 477.3 552.734 467.747C551.423 466.708 550.237 465.52 549.2 464.208Z" fill="#424B58"/><path d="M583.42 450.973C583.42 460.591 575.623 468.387 566.006 468.387 556.388 468.387 548.592 460.591 548.592 450.973 548.592 441.355 556.388 433.559 566.006 433.559 575.623 433.559 583.42 441.355 583.42 450.973Z" fill="#424B58"/></g></svg>